<?xml version="1.0" encoding="utf-8"?>
<!-- Generator: Adobe Illustrator 28.2.0, SVG Export Plug-In . SVG Version: 6.00 Build 0)  -->
<svg version="1.1" id="Layer_1" xmlns="http://www.w3.org/2000/svg" xmlns:xlink="http://www.w3.org/1999/xlink" x="0px" y="0px"
	 viewBox="0 0 535 567" style="enable-background:new 0 0 535 567;" xml:space="preserve">
<g>
	<path d="M267.02,72.4c34.09,0,68.32,7.73,98.98,22.37c32.13,15.33,59.62,37.45,81.7,65.74c19.03,24.38,32.71,51.74,40.66,81.33
		c7.69,28.59,9.74,58.06,6.1,87.59c-3.64,29.53-12.79,57.62-27.18,83.49c-14.9,26.77-34.81,49.99-59.19,69.02
		c-20.48,15.99-43.22,28.27-67.59,36.5c-23.55,7.96-48.16,11.99-73.14,11.99c-34.1,0-68.33-7.73-98.99-22.36
		c-32.13-15.33-59.62-37.45-81.71-65.75c-19.03-24.38-32.71-51.74-40.66-81.33c-7.69-28.59-9.74-58.06-6.1-87.59
		c3.64-29.53,12.79-57.62,27.18-83.49c14.9-26.77,34.81-49.99,59.19-69.02c20.48-15.99,43.22-28.27,67.59-36.5
		C217.42,76.44,242.02,72.4,267.02,72.4L267.02,72.4L267.02,72.4 M267,45.4c-55.07,0-110.56,17.7-157.34,54.21
		C-1.79,186.6-21.62,347.47,65.37,458.93c50.48,64.68,125.83,98.5,201.98,98.5c55.07,0,110.56-17.7,157.34-54.21
		c111.45-86.99,131.28-247.87,44.29-359.32C418.5,79.22,343.15,45.4,267,45.4L267,45.4z"/>
</g>
<g>
	<path d="M114.5,436.08l1.26-29.01c20.53,6.23,38.88,3.87,53.99-7.93c20.24-15.79,21.14-36.29,2.35-60.36L93.53,238.11l-64.81,50.58
		l-11.35-28.32l84.12-64.34l94.97,121.67c31.19,39.96,27.12,74.88-9.51,103.47C165.69,437.76,139.02,443.74,114.5,436.08z"/>
</g>
<g>
	<path d="M250.65,433.46l1.26-29.01c20.53,6.23,38.88,3.87,53.99-7.93c20.24-15.79,21.14-36.29,2.35-60.37l-78.57-100.67
		l-64.8,50.58l-17.39-22.28l90.16-70.38l94.97,121.67c31.19,39.96,27.12,74.88-9.51,103.47
		C301.83,435.14,275.17,441.12,250.65,433.46z"/>
</g>
<g>
	<path d="M388.87,433.4l1.26-29.01c20.53,6.23,38.88,3.87,53.99-7.93c20.24-15.79,21.14-36.29,2.35-60.37L367.9,235.43l-64.8,50.58
		l-17.39-22.28l90.16-70.38l94.97,121.67c31.19,39.96,27.12,74.88-9.51,103.47C440.06,435.08,413.39,441.05,388.87,433.4z"/>
</g>
<circle cx="196.8" cy="168.21" r="17.2"/>
<polygon points="262.83,56.63 288.07,55.63 306,5 282.02,4.79 "/>
<polygon points="271,56.63 245.77,55.63 227.83,5 251.81,4.79 "/>
<circle cx="336.68" cy="169.2" r="17.2"/>
</svg>
